<svg id="i_cam_tilt" xmlns="http://www.w3.org/2000/svg" width="24" height="24" viewBox="0 0 24 24">
  <rect id="Rechteck_1516" data-name="Rechteck 1516" width="24" height="24" fill="none"/>
  <path id="Pfad_1878" data-name="Pfad 1878" d="M185.56,213.359q-.247-.4-.517-.787l1.641-1.144q.3.432.579.884Zm1.676,3.664,1.908-.6a18.6,18.6,0,0,0-.814-2.112l-1.819.832A16.367,16.367,0,0,1,187.236,217.023Zm.734,3.962,2-.122a18.513,18.513,0,0,0-.275-2.246l-1.966.363A16.812,16.812,0,0,1,187.97,220.985Zm-1.454,7.866,1.818.832a18.338,18.338,0,0,0,.813-2.115l-1.907-.6A16.622,16.622,0,0,1,186.516,228.851ZM187.97,223a16.579,16.579,0,0,1-.243,2.005l1.966.363a18.6,18.6,0,0,0,.273-2.247Zm-2.927,8.424,1.641,1.144q.3-.432.579-.884l-1.7-1.047Q185.313,231.042,185.043,231.428Zm-1.573-20.276-14.54,9.087a2,2,0,1,0,0,3.522l14.54,9.087,1.06-1.7-14.537-9.085c0-.023.007-.044.007-.067s-.006-.044-.007-.067l14.537-9.085Z" transform="translate(-166 -210.152)" fill="#0b7285"/>
</svg>
