<svg id="i_config" xmlns="http://www.w3.org/2000/svg" width="24" height="24" viewBox="0 0 24 24">
  <rect id="Rechteck_1509" data-name="Rechteck 1509" width="24" height="24" fill="none"/>
  <path id="icons8-settings" d="M9.666,2l-.49,2.523A7.951,7.951,0,0,0,6.932,5.814L4.508,4.979,2.172,9.021l1.941,1.688A8.006,8.006,0,0,0,4,12a8.135,8.135,0,0,0,.113,1.291v0L2.172,14.98l2.336,4.041,2.422-.834a7.952,7.952,0,0,0,2.246,1.289L9.666,22h4.668l.49-2.523a7.941,7.941,0,0,0,2.244-1.291l2.424.836,2.334-4.041-1.939-1.689a7.4,7.4,0,0,0,0-2.58v0L21.828,9.02,19.492,4.979l-2.422.834a7.952,7.952,0,0,0-2.246-1.289L14.334,2Zm1.648,2h1.371l.389,2,1.043.395a5.941,5.941,0,0,1,1.684.965l.863.707,1.922-.66.686,1.186L17.736,9.928l.176,1.1v0a5.4,5.4,0,0,1,0,1.941l-.178,1.1,1.535,1.336-.686,1.188-1.92-.662-.865.709a5.93,5.93,0,0,1-1.682.965h0L13.072,18l-.389,2H11.314l-.389-2-1.043-.395A5.941,5.941,0,0,1,8.2,16.641l-.863-.707-1.922.66-.686-1.186L6.266,14.07l-.178-1.1v0A6.158,6.158,0,0,1,6,12a6.013,6.013,0,0,1,.088-.971l.178-1.1L4.729,8.594l.686-1.187,1.922.662L8.2,7.359a5.941,5.941,0,0,1,1.684-.965L10.926,6ZM12,8a4,4,0,1,0,4,4A4.016,4.016,0,0,0,12,8Zm0,2a2,2,0,1,1-2,2A1.991,1.991,0,0,1,12,10Z" transform="translate(-0.172)" fill="#030303"/>
</svg>
