<svg id="i_extrusion" xmlns="http://www.w3.org/2000/svg" width="24" height="24" viewBox="0 0 24 24">
  <rect id="Rechteck_1973" data-name="Rechteck 1973" width="24" height="24" fill="none"/>
  <path id="Pfad_9439" data-name="Pfad 9439" d="M12.119,4.323l1.1-1.59,1.591,1.1-1.1,1.59Zm2.434,6.093A16.367,16.367,0,0,0,16.335,9.4L15.273,7.782a14.46,14.46,0,0,1-1.571.9Zm1.54-3.351,1.1-1.589L15.6,4.379,14.5,5.968Zm-4.46,4.411a13.466,13.466,0,0,0,1.98-.637l-.73-1.789a11.508,11.508,0,0,1-1.7.547ZM5.388,11.2a11.052,11.052,0,0,0,2.055.492L7.709,9.78a9.026,9.026,0,0,1-1.7-.4ZM2.582,9.808a12.837,12.837,0,0,0,1.827,1.007L5.2,9.052A11,11,0,0,1,3.646,8.2ZM7.653,3.454l-1.1-1.589-1.589,1.1,1.1,1.589ZM5.269,5.1l-1.1-1.59-1.59,1.1,1.1,1.59Zm14,1.794h-.028l-1.259-.87-.507.734-.392-.394a11.237,11.237,0,0,1-1.07.9l1.16,1.545c.128-.1.233-.182.344-.27v9.973l-7.009-4.837V11.684c.03,0,.061-.005.091-.01l-.091-.618V3.213l.813.561,1.1-1.59-1.234-.852L9.636.261,9.258,0,7.35,1.317l1.1,1.589.312-.215V9.859c-.063,0-.129,0-.186,0L8.5,11.789l.26.011v1.872L1.752,18.508V9.193L2.915,7.675c-.211-.162-.423-.333-.632-.514l.6-.415-1.1-1.59L.428,6.094.2,6.253l.012.017L0,6.439V19.694H.034L0,19.717c9.636,9.636,19.271,0,19.271,0l-.034-.023h.036Z" transform="translate(2.363)" fill="#868E96"/>
</svg>
