<svg id="i_punkt_zeichnen" xmlns="http://www.w3.org/2000/svg" width="24" height="24" viewBox="0 0 24 24">
  <path id="icons_punkt_zeichnen" d="M12,2.01A7,7,0,0,0,5.008,9c0,4.483,5.967,11.765,6.221,12.072l.771.936.771-.936c.254-.308,6.221-7.589,6.221-12.072A7,7,0,0,0,12,2.01Zm0,2A5,5,0,0,1,16.992,9c0,2.7-3.114,7.357-4.992,9.822C10.122,16.363,7.008,11.713,7.008,9A5,5,0,0,1,12,4.01ZM11,6V8.006H8.994v2H11v2.006h2V10.006h2.006v-2H13V6Z" transform="translate(-0.008 -0.01)" fill="#0b7285"/>
  <rect id="Rechteck_1967" data-name="Rechteck 1967" width="24" height="24" fill="none"/>
</svg>
