<svg id="i_schnitte_erstellen" xmlns="http://www.w3.org/2000/svg" width="24" height="24" viewBox="0 0 24 24">
  <rect id="Rechteck_2827" data-name="Rechteck 2827" width="24" height="24" fill="none"/>
  <path id="Pfad_9378" data-name="Pfad 9378" d="M802.684,173.965l-.367.075a2.029,2.029,0,0,0-1.092.616,3.283,3.283,0,0,0-.4.836,6.273,6.273,0,0,1-1,1.841c-1.263,1.514-3.564,2.246-7.039,2.246h-1.043v-1.041a7.747,7.747,0,0,1,2.369-6.054,15.09,15.09,0,0,1,3.189-1.954,3.781,3.781,0,0,0,.647-.747l.124-.191,1.643,1.315-.125.16a7.664,7.664,0,0,1-1.169,1.219,18.379,18.379,0,0,0-2.924,1.747,5.415,5.415,0,0,0-1.5,3.32c2.718-.2,3.8-.838,4.222-1.347a4.223,4.223,0,0,0,.642-1.237,4.158,4.158,0,0,1,.878-1.589,4.228,4.228,0,0,1,1.192-.833l.134-.063Zm-1,10.507v9.12h-22V175.1Zm-20-6.347v3.408a12.323,12.323,0,0,1,9.4,3.873c2.772,3.033,6.959,2.578,8.6,2.252v-1.868Zm18,13.469v-1.9a14.178,14.178,0,0,1-2.414.212,10.089,10.089,0,0,1-7.665-3.153,10.4,10.4,0,0,0-7.921-3.22v4.233h5.368v2h-5.368v1.83Z" transform="translate(-778.685 -169.592)" fill="#0b7285"/>
</svg>
