<svg id="i_tools" xmlns="http://www.w3.org/2000/svg" width="24" height="24" viewBox="0 0 24 24">
  <rect id="Rechteck_1907" data-name="Rechteck 1907" width="24" height="24" fill="none"/>
  <path id="icons8-maintenance" d="M4.846,2.75,4.374,3.2,3.2,4.374l-.445.472.341.55L4.846,8.33l.236.419H7.544L10.9,12.076c-3,3.009-6.808,6.834-6.942,6.968a3.288,3.288,0,0,0,.026,4.715,3.289,3.289,0,0,0,4.689,0l.026-.026,5.161-5.187,5.187,5.213.079.052a3.287,3.287,0,0,0,4.637-.052v-.026h.026a3.3,3.3,0,0,0-.026-4.689l-.026-.026-4.375-4.349A5.871,5.871,0,0,0,24.65,8.906h.026a.28.28,0,0,0,0-.052V8.828a4.338,4.338,0,0,0-.629-2.7l-.576-.891-3.9,3.9L18.389,7.911l3.982-3.982-1.153-.472a5.84,5.84,0,0,0-8.2,5.37,5.324,5.324,0,0,0,.131.969c-.367.367-.642.668-1.074,1.1L8.749,7.57V5.081L8.33,4.846,5.4,3.091ZM18.887,4.636c.118,0,.2.069.314.079l-3.17,3.17.576.6,2.358,2.436.576.6L22.869,8.2c.016.193.154.334.131.55v.079a4.2,4.2,0,0,1-4.191,4.191,5.98,5.98,0,0,1-1.1-.157l-.445-.079-.314.314L7.492,22.581H7.465v.026a1.6,1.6,0,0,1-2.331-.026v-.026H5.108a1.6,1.6,0,0,1,.026-2.331c.318-.318,6.47-6.523,9.483-9.535l.341-.341-.131-.472A5.125,5.125,0,0,1,14.7,8.828,4.2,4.2,0,0,1,18.887,4.636Zm-13.779.21L7.072,6.051v.838l-.183.183H6.051L4.846,5.108Zm12.26,10.19,5.213,5.187v.026h.026a1.6,1.6,0,0,1-.026,2.331h-.026v.026a1.6,1.6,0,0,1-2.331-.026l-5.187-5.213Z" transform="translate(-1.75 -1.746)" fill="#030303"/>
</svg>
