<svg id="i_user" xmlns="http://www.w3.org/2000/svg" width="24" height="24" viewBox="0 0 24 24">
  <rect id="Rechteck_1494" data-name="Rechteck 1494" width="24" height="24" fill="none"/>
  <path id="icons8-user" d="M12,3a4,4,0,1,0,4,4A4.015,4.015,0,0,0,12,3Zm0,2a2,2,0,1,1-2,2A1.985,1.985,0,0,1,12,5Zm0,9a15.947,15.947,0,0,0-5.551,1.1,8.345,8.345,0,0,0-2.283,1.273A2.821,2.821,0,0,0,3,18.5V21H21V18.5a2.821,2.821,0,0,0-1.166-2.131A8.345,8.345,0,0,0,17.551,15.1,15.947,15.947,0,0,0,12,14Zm0,2a14.492,14.492,0,0,1,4.818.955,6.717,6.717,0,0,1,1.736.951c.378.314.445.528.445.594V19H5v-.5c0-.065.068-.279.445-.594a6.717,6.717,0,0,1,1.736-.951A14.492,14.492,0,0,1,12,16Z" fill="#030303"/>
</svg>
