<svg id="i_zoom_origin" xmlns="http://www.w3.org/2000/svg" width="24" height="24" viewBox="0 0 24 24">
  <rect id="Box" width="24" height="24" fill="none"/>
  <g id="Pfad_1874" data-name="Pfad 1874" transform="translate(5 5)" fill="none">
    <path d="M7,0A7,7,0,1,1,0,7,7,7,0,0,1,7,0Z" stroke="none"/>
    <path d="M 7 2 C 4.242989540100098 2 2 4.242989540100098 2 7 C 2 9.757009506225586 4.242989540100098 12 7 12 C 9.757009506225586 12 12 9.757009506225586 12 7 C 12 4.242989540100098 9.757009506225586 2 7 2 M 7 0 C 10.86598968505859 0 14 3.134010314941406 14 7 C 14 10.86598968505859 10.86598968505859 14 7 14 C 3.134010314941406 14 0 10.86598968505859 0 7 C 0 3.134010314941406 3.134010314941406 0 7 0 Z" stroke="none" fill="#0c7285"/>
  </g>
</svg>
