<?xml version="1.0" encoding="utf-8"?>
<!-- Generator: Adobe Illustrator 28.1.0, SVG Export Plug-In . SVG Version: 6.00 Build 0)  -->
<svg version="1.1" id="Ebene_1" xmlns="http://www.w3.org/2000/svg" xmlns:xlink="http://www.w3.org/1999/xlink" x="0px" y="0px"
	 viewBox="0 0 264 264" style="enable-background:new 0 0 264 264;" xml:space="preserve">
<style type="text/css">
	.st0{fill:#759964;}
	.st1{fill:#FFFFFF;}
</style>
<g id="viewer">
	<rect class="st0" width="264.3" height="264.3"/>
	<g>
		<path class="st1" d="M95.4,133.1c-4.3-3.3-6.6-8-6.9-14.1H63.3c0,6.9,2.1,13.3,6.2,19.3c2,2.9,4.4,5.5,7.1,7.7
			c1.8,1.5,3.7,2.9,5.8,4.1c1.4,0.8,2.8,1.6,4.3,2.3c2.7,1.2,5.5,2.2,8.4,3l5.3-19.4C98.6,135.2,96.9,134.3,95.4,133.1z M97.8,61.2
			c3.6-2.6,8.2-3.9,13.9-3.9c3.7,0,6.9,0.6,9.7,1.8l5.3-19.6c-4.6-1.1-9.6-1.6-15-1.6c-12.9,0-23.6,3.3-32,10
			c-8.3,6.7-12.5,15-12.5,24.9c0,11.8,6.5,20.9,19.4,27.2c0.7,0.4,1.5,0.7,2.3,1.1c2.5,1.1,5.3,2.1,8.3,3c3.4,1.1,7.2,2.1,11.2,2.9
			l5.5-20.2c-8.1-2-13.5-3.9-16.4-5.8c-1-0.7-1.9-1.4-2.6-2.3c-1.6-1.9-2.4-4.2-2.4-7C92.4,67.4,94.2,63.9,97.8,61.2z M131.9,74.6
			L131.9,74.6L131.9,74.6L131.9,74.6z"/>
		<path class="st1" d="M192.7,94.4v15.8l-13.3,2.8v89.1c0,9.6-1.9,17.9-5.8,24.9c-3.8,7-9.4,12.5-16.8,16.3
			c-7.4,3.8-16.1,5.8-26.4,5.8c-5.4,0-11.5-0.7-18.1-2.2c-4-0.9-7.6-2-11-3.3c-1.4-0.5-2.7-1-4-1.6l5.1-18.9c1.3,0.5,2.6,1,4,1.5
			c2.6,0.9,5.2,1.6,8.1,2.3c5.2,1.2,10.2,1.8,14.9,1.8c8.4,0,14.6-2.3,18.5-7s5.9-11.2,5.9-19.7v-8.7c-3.4,4.3-7.5,7.7-12.1,9.9
			c-4.7,2.3-10,3.4-16.1,3.4c-4.9,0-9.4-0.7-13.6-2.1c-1.4-0.4-2.7-0.9-4-1.5l6.7-24.7c1,1.4,2.1,2.6,3.4,3.6
			c3.7,2.9,8.5,4.4,14.4,4.4c4.9,0,9.2-1.1,12.7-3.1c3.5-2.1,6.4-5.2,8.6-9.2v-49c-2.2-3.9-5.1-6.9-8.7-9.1
			c-2.4-1.5-5.1-2.5-8.2-2.9c-1.4-0.2-2.8-0.3-4.3-0.3l5-18.4v-0.1c0.6,0.2,1.2,0.5,1.7,0.8h0.1c0.1,0,0.2,0.1,0.3,0.2
			c0.6,0.2,1.2,0.5,1.8,0.8c0.4,0.2,0.8,0.4,1.2,0.6c1.7,1,3.3,2,4.9,3.3c0.2,0.1,0.4,0.3,0.5,0.4c2.4,1.9,4.4,4,5.9,6.2
			c0.3,0.3,0.5,0.6,0.7,1c0.2,0.3,0.4,0.6,0.6,0.9l1.9-13.9L192.7,94.4L192.7,94.4z"/>
	</g>
	<polygon class="st1" points="158.9,15.3 152.3,39.6 126.8,39.6 128.4,33.9 133.4,15.3 	"/>
</g>
</svg>
