<?xml version="1.0" encoding="utf-8"?>
<!-- Generator: Adobe Illustrator 26.1.0, SVG Export Plug-In . SVG Version: 6.00 Build 0)  -->
<svg version="1.1" id="Ebene_1" xmlns="http://www.w3.org/2000/svg" xmlns:xlink="http://www.w3.org/1999/xlink" x="0px" y="0px"
	 width="33.5px" height="33.5px" viewBox="0 0 33.5 33.5" style="enable-background:new 0 0 33.5 33.5;" xml:space="preserve">
<style type="text/css">
	.st0{fill:#759964;}
	.st1{fill:#FFFFFF;}
</style>
<g id="viewer">
	<rect class="st0" width="33.5" height="33.5"/>
	<g>
		<path class="st1" d="M12.1,16.9c-0.5-0.4-0.8-1-0.9-1.8H8c0,0.9,0.3,1.7,0.8,2.4c0.3,0.4,0.6,0.7,0.9,1c0.2,0.2,0.5,0.4,0.7,0.5
			c0.2,0.1,0.4,0.2,0.5,0.3c0.3,0.2,0.7,0.3,1.1,0.4l0.7-2.5C12.5,17.1,12.3,17,12.1,16.9z M12.4,7.8c0.5-0.3,1-0.5,1.8-0.5
			c0.5,0,0.9,0.1,1.2,0.2L16.1,5c-0.6-0.1-1.2-0.2-1.9-0.2c-1.6,0-3,0.4-4.1,1.3C9.1,6.9,8.5,8,8.5,9.2c0,1.5,0.8,2.6,2.5,3.4
			c0.1,0.1,0.2,0.1,0.3,0.1c0.3,0.1,0.7,0.3,1.1,0.4c0.4,0.1,0.9,0.3,1.4,0.4l0.7-2.6c-1-0.3-1.7-0.5-2.1-0.7
			c-0.1-0.1-0.2-0.2-0.3-0.3c-0.2-0.2-0.3-0.5-0.3-0.9C11.7,8.5,11.9,8.1,12.4,7.8z M16.7,9.5L16.7,9.5L16.7,9.5L16.7,9.5z"/>
		<path class="st1" d="M24.4,12v2l-1.7,0.4v11.3c0,1.2-0.2,2.3-0.7,3.2c-0.5,0.9-1.2,1.6-2.1,2.1c-0.9,0.5-2,0.7-3.3,0.7
			c-0.7,0-1.5-0.1-2.3-0.3c-0.5-0.1-1-0.3-1.4-0.4c-0.2-0.1-0.3-0.1-0.5-0.2l0.6-2.4c0.2,0.1,0.3,0.1,0.5,0.2c0.3,0.1,0.7,0.2,1,0.3
			c0.7,0.2,1.3,0.2,1.9,0.2c1.1,0,1.9-0.3,2.3-0.9c0.5-0.6,0.7-1.4,0.7-2.5v-1.1c-0.4,0.5-1,1-1.5,1.3c-0.6,0.3-1.3,0.4-2,0.4
			c-0.6,0-1.2-0.1-1.7-0.3c-0.2-0.1-0.3-0.1-0.5-0.2l0.8-3.1c0.1,0.2,0.3,0.3,0.4,0.5c0.5,0.4,1.1,0.6,1.8,0.6
			c0.6,0,1.2-0.1,1.6-0.4c0.4-0.3,0.8-0.7,1.1-1.2v-6.2c-0.3-0.5-0.6-0.9-1.1-1.2c-0.3-0.2-0.6-0.3-1-0.4c-0.2,0-0.4,0-0.5,0
			l0.6-2.3v0c0.1,0,0.2,0.1,0.2,0.1h0c0,0,0,0,0,0c0.1,0,0.2,0.1,0.2,0.1c0.1,0,0.1,0.1,0.2,0.1c0.2,0.1,0.4,0.3,0.6,0.4
			c0,0,0.1,0,0.1,0.1c0.3,0.2,0.6,0.5,0.7,0.8c0,0,0.1,0.1,0.1,0.1c0,0,0.1,0.1,0.1,0.1l0.2-1.8L24.4,12L24.4,12z"/>
	</g>
	<polygon class="st1" points="20.1,1.9 19.3,5 16.1,5 16.3,4.3 16.9,1.9 	"/>
</g>
</svg>
