<?xml version="1.0" encoding="utf-8"?>
<!-- Generator: Adobe Illustrator 28.2.0, SVG Export Plug-In . SVG Version: 6.00 Build 0)  -->
<svg version="1.1" id="Ebene_1" xmlns="http://www.w3.org/2000/svg" xmlns:xlink="http://www.w3.org/1999/xlink" x="0px" y="0px"
	 viewBox="0 0 569 150" style="enable-background:new 0 0 569 150;" xml:space="preserve">
<style type="text/css">
	.st0{enable-background:new    ;}
	.st1{fill:#759964;}
	.st2{fill:#706F6F;}
	.st3{fill:none;}
</style>
<g id="viewer">
	<g class="st0">
		<path class="st1" d="M293.6,129.5l-15.9-41.2l-5.2-0.7v-7h22.3v7l-5.7,0.9l8.8,24.6l1.2,3.9h0.3l1.3-3.9l8.9-24.6l-6.3-0.9v-7
			h22.3v7l-5.4,0.7l-15.9,41.1h-10.9V129.5z"/>
		<path class="st1" d="M329.8,129.5v-7l6.8-1.3V88.8l-7.1-1.3v-7h18.6v40.6l6.7,1.3v7H329.8z M336.2,69.3V58.8h11.9v10.6H336.2z"/>
	</g>
	<g class="st0">
		<path class="st1" d="M382.9,130.4c-4.6,0-8.6-1-12.1-3.1c-3.4-2.1-6.1-4.9-7.9-8.6c-1.9-3.7-2.8-7.9-2.8-12.5v-1.9
			c0-4.8,0.9-9.1,2.8-12.8c1.8-3.7,4.5-6.7,7.7-8.8c3.3-2.1,7-3.1,11.2-3.1c4.5,0,8.2,0.9,11.2,2.7c3,1.8,5.2,4.3,6.8,7.6
			c1.5,3.3,2.4,7.1,2.4,11.8v6.6h-30.4l-0.1,0.3c0.1,2.5,0.6,4.9,1.6,6.8c0.9,1.9,2.4,3.6,4,4.8c1.8,1.2,3.9,1.8,6.4,1.8
			c2.7,0,5.1-0.3,7.3-1s4.2-1.8,6-3.1l3.6,7.1c-1.9,1.6-4.3,3-7.4,4.2C390.1,130.1,386.9,130.4,382.9,130.4z M372,100.2H391V99
			c0-2.1-0.3-4-1-5.7c-0.6-1.6-1.6-2.8-3-3.7s-3.1-1.3-5.2-1.3c-1.8,0-3.4,0.4-4.9,1.5c-1.3,1-2.5,2.4-3.3,4.2
			c-0.9,1.8-1.3,3.7-1.6,6L372,100.2z"/>
	</g>
	<g class="st0">
		<path class="st1" d="M421.8,129.5l-12.1-41.1l-5.8-0.9v-7h22.2v7l-5.5,1l5.5,21.3l1.2,4.6h0.3l1.6-4.6l10.3-29.3h8.3l10,29.5
			l1.6,5.2h0.3l1.6-5.2l6-21.4l-6-1v-7h21.7v7l-5.7,0.9L465,129.3h-10l-9.4-26.5l-1.9-6.4h-0.3l-1.9,6.4l-9.5,26.5h-10.1V129.5z"/>
	</g>
	<g class="st0">
		<path class="st1" d="M506.8,130.4c-4.6,0-8.6-1-12.1-3.1c-3.4-2.1-6.1-4.9-7.9-8.6c-1.8-3.7-2.8-7.9-2.8-12.5v-1.9
			c0-4.8,0.9-9.1,2.8-12.8c1.8-3.7,4.5-6.7,7.7-8.8s7-3.1,11.2-3.1c4.5,0,8.2,0.9,11.2,2.7c3,1.8,5.2,4.3,6.8,7.6
			c1.5,3.3,2.2,7.1,2.2,11.8v6.6h-30.1l-0.1,0.3c0.1,2.5,0.6,4.9,1.6,6.8c0.9,1.9,2.2,3.6,4,4.8c1.8,1.2,3.9,1.8,6.4,1.8
			c2.7,0,5.1-0.3,7.3-1s4.2-1.8,6-3.1l3.6,7.1c-1.9,1.6-4.3,3-7.4,4.2C514.1,130.1,510.8,130.4,506.8,130.4z M495.9,100.2h18.9V99
			c0-2.1-0.3-4-1-5.7c-0.7-1.6-1.6-2.8-3-3.7s-3.1-1.3-5.2-1.3c-1.8,0-3.4,0.4-4.9,1.5c-1.3,1-2.5,2.4-3.3,4.2
			c-0.9,1.8-1.3,3.7-1.6,6L495.9,100.2z"/>
		<path class="st1" d="M532.8,129.5v-7l6.8-1.3V88.8l-7.1-1.3v-7h17.7l0.6,6.1l0.1,1c1.3-2.5,2.8-4.6,4.8-6c1.9-1.3,4.2-2.1,6.7-2.1
			c0.9,0,1.8,0.1,2.7,0.3c0.9,0.1,1.8,0.3,2.4,0.4l-1.3,10.6l-6.4-0.3c-2.1-0.1-3.7,0.3-5.2,1.2c-1.5,0.9-2.5,2.2-3.4,3.9v25.5
			l6.8,1.3v7H532.8z"/>
	</g>
	<g>
		<g>
			<path d="M130.5,80.4v7l-6,1.2v39.6c0,4.3-0.9,7.9-2.5,11c-1.6,3.1-4.2,5.5-7.4,7.3c-3.3,1.6-7.1,2.5-11.8,2.5c-2.4,0-5.1-0.3-8-1
				c-3-0.6-5.5-1.5-7.7-2.7l2.2-8.3c1.9,0.9,4,1.6,6.4,2.1c2.4,0.6,4.5,0.7,6.6,0.7c3.7,0,6.6-1,8.2-3.1c1.8-2.1,2.5-4.9,2.5-8.8
				V124c-1.5,1.9-3.3,3.4-5.4,4.5c-2.1,1-4.5,1.5-7.1,1.5c-3.3,0-6.3-0.7-8.9-2.1l3.1-11.8c0.1,0.3,0.3,0.6,0.4,0.9
				c1.8,2.7,4.5,4,8.2,4c2.2,0,4-0.4,5.7-1.3c1.5-0.9,2.8-2.2,3.9-4V94.1c-1-1.8-2.2-3.1-3.9-4c-1.6-1-3.4-1.5-5.5-1.5
				c-0.4,0-0.7,0-1.2,0l2.4-8.5c1.2,0.3,2.4,0.7,3.4,1.3c2.2,1.2,4,3,5.7,5.2l0.9-6.1h15.9C130.5,80.5,130.5,80.4,130.5,80.4z"/>
			<path d="M155.6,130.4c-4.6,0-8.6-1-12.1-3.1c-3.4-2.1-6.1-4.9-7.9-8.6c-1.9-3.7-2.8-7.9-2.8-12.5v-1.9c0-4.8,0.9-9.1,2.8-12.8
				c1.8-3.7,4.5-6.7,7.7-8.8s7-3.1,11.2-3.1c4.5,0,8.2,0.9,11.2,2.7c3,1.8,5.2,4.3,6.8,7.6c1.5,3.3,2.4,7.1,2.4,11.8v6.6h-30.1
				l-0.1,0.3c0.1,2.5,0.6,4.9,1.6,6.8c0.9,1.9,2.4,3.6,4,4.8c1.8,1.2,3.9,1.8,6.4,1.8c2.7,0,5.1-0.3,7.3-1s4.2-1.8,6-3.1l3.6,7.1
				c-1.9,1.6-4.3,3-7.4,4.2C163,129.8,159.4,130.4,155.6,130.4z M144.7,100h18.9v-1.2c0-2.1-0.3-4-1-5.7c-0.6-1.6-1.6-2.8-3-3.7
				c-1.3-0.9-3.1-1.3-5.2-1.3c-1.8,0-3.4,0.4-4.9,1.5c-1.3,1-2.5,2.4-3.3,4.2c-0.9,1.8-1.3,3.7-1.6,6L144.7,100z"/>
			<path d="M202.3,130.4c-4.8,0-8.8-1-12.1-3.1c-3.4-2.1-6-5.1-7.7-8.8s-2.7-8-2.7-13v-0.9c0-4.9,0.9-9.2,2.7-13
				c1.8-3.7,4.5-6.7,7.7-8.8c3.4-2.1,7.4-3.3,12.1-3.3c4.8,0,8.8,1,12.1,3.1c3.4,2.1,6,5.1,7.7,8.8s2.7,8,2.7,13v0.9
				c0,4.9-0.9,9.2-2.7,13c-1.8,3.7-4.5,6.7-7.7,8.8C211.1,129.3,207.1,130.4,202.3,130.4z M202.3,121.6c2.5,0,4.6-0.7,6.3-2.1
				c1.6-1.3,2.8-3.3,3.7-5.7c0.7-2.4,1.2-5.2,1.2-8.3v-0.9c0-3.1-0.4-6-1.2-8.3c-0.7-2.4-2.1-4.3-3.7-5.7s-3.7-2.1-6.4-2.1
				c-2.5,0-4.6,0.7-6.3,2.1c-1.6,1.3-2.8,3.3-3.7,5.7c-0.7,2.4-1.2,5.2-1.2,8.3v0.9c0,3.1,0.4,6,1.2,8.3c0.7,2.4,2.1,4.3,3.7,5.7
				C197.7,120.9,199.8,121.6,202.3,121.6z"/>
			<path d="M227.3,129.3v-7l6.8-1.3V67.1l-7.3-1.3v-7h18.6V121l6.8,1.3v7C252.3,129.3,227.3,129.3,227.3,129.3z"/>
		</g>
		<path class="st2" d="M30.8,54.5c0-1.9-0.7-3.4-2.4-4.5c-1.6-1-4.3-1.9-8-2.7c-3.7-0.7-6.8-1.8-9.4-3c-5.5-2.7-8.2-6.6-8.2-11.6
			c0-4.2,1.8-7.7,5.4-10.6s8-4.3,13.5-4.3c5.8,0,10.6,1.5,14.1,4.3c3.6,2.8,5.4,6.7,5.4,11.3h-11c0-2.1-0.7-3.9-2.4-5.2
			c-1.6-1.3-3.7-2.1-6.3-2.1c-2.4,0-4.3,0.6-6,1.6c-1.5,1.2-2.2,2.7-2.2,4.5c0,1.6,0.7,3,2.1,3.9c1.5,0.9,4.3,1.9,8.6,2.8
			c4.3,0.9,7.7,2.1,10.1,3.4c2.5,1.3,4.3,2.8,5.5,4.8c1.2,1.8,1.8,4,1.8,6.7c0,4.5-1.8,8-5.5,10.7c-3.7,2.7-8.5,4.2-14.3,4.2
			c-4,0-7.6-0.7-10.7-2.2c-3.1-1.5-5.5-3.4-7.3-6S1,55.3,1,52.4h10.7c0.1,2.5,1.2,4.6,3,6c1.8,1.3,4.2,2.1,7.1,2.1
			c2.8,0,5.1-0.6,6.6-1.6C30,57.6,30.8,56.2,30.8,54.5z"/>
		<path d="M96.9,67.7L96.9,67.7"/>
		<polygon class="st2" points="110.3,18.7 96.9,67.7 88,67.7 77.4,34.1 67.1,67.7 58,67.7 44.6,18.7 55.3,18.7 63.2,52.2 73.4,18.7 
			81.6,18.7 91.8,52.5 99.6,18.7 		"/>
		<path class="st2" d="M132.8,22.1c-3-2.4-6.6-3.7-10.9-4.2l-2.2,8c2.1,0.1,3.9,0.9,5.2,2.1c1.6,1.3,2.4,3.1,2.4,5.2h11
			C138.1,28.8,136.3,25.1,132.8,22.1z M136.8,47.2c-1.2-1.8-3-3.4-5.5-4.8c-2.5-1.3-5.8-2.4-10.1-3.4c-1.8-0.4-3.4-0.7-4.6-1.2
			l-2.4,8.6c1,0.3,2.1,0.4,3.1,0.7c3.7,0.7,6.4,1.6,8,2.7s2.4,2.5,2.4,4.5c0,1.8-0.7,3.3-2.2,4.3c-1.5,1-3.7,1.6-6.6,1.6
			c-3,0-5.4-0.7-7.1-2.1c-0.1-0.1-0.4-0.3-0.6-0.6l-2.4,8.9c3,1.3,6.4,1.9,10.1,1.9c6,0,10.7-1.3,14.3-4.2c3.7-2.7,5.5-6.3,5.5-10.7
			C138.6,51.2,138,48.9,136.8,47.2z"/>
		<path class="st2" d="M173.9,54.5c0-1.9-0.7-3.4-2.4-4.5c-1.6-1-4.3-1.9-8-2.7c-3.7-0.7-6.8-1.8-9.4-3c-5.5-2.7-8.2-6.6-8.2-11.6
			c0-4.2,1.8-7.7,5.4-10.6s8-4.3,13.5-4.3c5.8,0,10.6,1.5,14.1,4.3c3.6,2.8,5.4,6.7,5.4,11.3h-11c0-2.1-0.7-3.9-2.4-5.2
			c-1.6-1.3-3.7-2.1-6.3-2.1c-2.4,0-4.3,0.6-6,1.6c-1.5,1.2-2.2,2.7-2.2,4.5c0,1.6,0.7,3,2.1,3.9c1.5,0.9,4.3,1.9,8.6,2.8
			c4.3,0.9,7.7,2.1,10.1,3.4c2.5,1.3,4.3,2.8,5.5,4.8c1.2,1.8,1.8,4,1.8,6.7c0,4.5-1.8,8-5.5,10.7c-3.7,2.7-8.5,4.2-14.3,4.2
			c-4,0-7.6-0.7-10.7-2.2c-3.1-1.5-5.5-3.4-7.3-6s-2.7-5.2-2.7-8.2h10.7c0.1,2.5,1.2,4.6,3,6c1.8,1.3,4.2,2.1,7.1,2.1
			c2.8,0,5.1-0.6,6.6-1.6C173.1,57.6,173.9,56.2,173.9,54.5z"/>
		<line class="st3" x1="96.9" y1="67.7" x2="96.9" y2="67.7"/>
		<polygon class="st1" points="126.5,1 123.5,11.9 112.2,11.9 115.2,1 		"/>
	</g>
</g>
</svg>
