<?xml version="1.0" encoding="utf-8"?>
<!-- Generator: Adobe Illustrator 26.1.0, SVG Export Plug-In . SVG Version: 6.00 Build 0)  -->
<svg version="1.1" id="Ebene_1" xmlns="http://www.w3.org/2000/svg" xmlns:xlink="http://www.w3.org/1999/xlink" x="0px" y="0px"
	 width="214.4px" height="56px" viewBox="0 0 214.4 56" style="enable-background:new 0 0 214.4 56;" xml:space="preserve">
<style type="text/css">
	.st0{enable-background:new    ;}
	.st1{fill:#759964;}
	.st2{fill:#706F6F;}
	.st3{fill:none;}
</style>
<g id="viewer">
	<g class="st0">
		<path class="st1" d="M110.7,48.6l-6-15.6l-2-0.3v-2.6h8.4v2.6l-2.2,0.3l3.3,9.3l0.5,1.5h0.1l0.5-1.5l3.4-9.3l-2.4-0.3v-2.6h8.4
			v2.6l-2,0.3l-6,15.6L110.7,48.6L110.7,48.6L110.7,48.6z"/>
		<path class="st1" d="M124.4,48.6V46l2.6-0.5V33.2l-2.7-0.5v-2.6h7v15.4l2.5,0.5v2.6L124.4,48.6L124.4,48.6z M126.8,25.8v-4h4.5v4
			L126.8,25.8L126.8,25.8z"/>
	</g>
	<g class="st0">
		<path class="st1" d="M144.5,49c-1.7,0-3.3-0.4-4.6-1.2c-1.3-0.8-2.3-1.9-3-3.3c-0.7-1.4-1.1-3-1.1-4.7v-0.7c0-1.8,0.3-3.4,1.1-4.8
			c0.7-1.4,1.7-2.5,2.9-3.3c1.2-0.8,2.6-1.2,4.2-1.2c1.7,0,3.1,0.3,4.2,1c1.1,0.7,2,1.6,2.6,2.9c0.6,1.2,0.9,2.7,0.9,4.5v2.5h-11.5
			l0,0.1c0,0.9,0.2,1.9,0.6,2.6c0.3,0.7,0.9,1.4,1.5,1.8c0.7,0.5,1.5,0.7,2.4,0.7c1,0,1.9-0.1,2.8-0.4c0.8-0.3,1.6-0.7,2.3-1.2
			l1.4,2.7c-0.7,0.6-1.6,1.1-2.8,1.6C147.2,48.8,146,49,144.5,49z M140.4,37.5h7.2v-0.5c0-0.8-0.1-1.5-0.4-2.2
			c-0.2-0.6-0.6-1.1-1.1-1.4c-0.5-0.3-1.2-0.5-2-0.5c-0.7,0-1.3,0.2-1.9,0.6c-0.5,0.4-0.9,0.9-1.2,1.6
			C140.6,35.9,140.5,36.6,140.4,37.5L140.4,37.5z"/>
	</g>
	<g class="st0">
		<path class="st1" d="M159.2,48.6l-4.6-15.6l-2.2-0.3v-2.6h8.4v2.6l-2.1,0.4l2.1,8.1l0.5,1.7h0.1l0.6-1.7l3.9-11.1h3.1l3.8,11.2
			l0.6,2h0.1l0.6-2l2.3-8.1l-2.3-0.4v-2.6h8.2v2.6l-2.2,0.3l-4.7,15.4h-3.8l-3.6-10l-0.7-2.4h-0.1l-0.7,2.4l-3.6,10L159.2,48.6
			L159.2,48.6L159.2,48.6z"/>
	</g>
	<g class="st0">
		<path class="st1" d="M191.4,49c-1.7,0-3.3-0.4-4.6-1.2c-1.3-0.8-2.3-1.9-3-3.3s-1.1-3-1.1-4.7v-0.7c0-1.8,0.3-3.4,1.1-4.8
			c0.7-1.4,1.7-2.5,2.9-3.3s2.6-1.2,4.2-1.2c1.7,0,3.1,0.3,4.2,1c1.1,0.7,2,1.6,2.6,2.9c0.6,1.2,0.8,2.7,0.8,4.5v2.5h-11.4l0,0.1
			c0,0.9,0.2,1.9,0.6,2.6c0.3,0.7,0.8,1.4,1.5,1.8c0.7,0.5,1.5,0.7,2.4,0.7c1,0,1.9-0.1,2.8-0.4c0.8-0.3,1.6-0.7,2.3-1.2l1.4,2.7
			c-0.7,0.6-1.6,1.1-2.8,1.6C194.1,48.8,192.9,49,191.4,49z M187.3,37.5h7.2v-0.5c0-0.8-0.1-1.5-0.4-2.2c-0.3-0.6-0.6-1.1-1.1-1.4
			s-1.2-0.5-2-0.5c-0.7,0-1.3,0.2-1.9,0.6c-0.5,0.4-0.9,0.9-1.2,1.6C187.5,35.9,187.3,36.6,187.3,37.5L187.3,37.5z"/>
		<path class="st1" d="M201.2,48.6V46l2.6-0.5V33.2l-2.7-0.5v-2.6h6.7l0.2,2.3l0,0.4c0.5-0.9,1.1-1.7,1.8-2.3
			c0.7-0.5,1.6-0.8,2.5-0.8c0.3,0,0.7,0,1,0.1c0.3,0,0.7,0.1,0.9,0.2l-0.5,4l-2.4-0.1c-0.8,0-1.4,0.1-2,0.5
			c-0.6,0.3-0.9,0.8-1.3,1.5v9.6l2.6,0.5v2.6L201.2,48.6L201.2,48.6z"/>
	</g>
	<g>
		<g>
			<path d="M49,30v2.6l-2.3,0.5v15c0,1.6-0.3,3-0.9,4.2c-0.6,1.2-1.6,2.1-2.8,2.8c-1.2,0.6-2.7,0.9-4.5,0.9c-0.9,0-1.9-0.1-3-0.4
				c-1.1-0.2-2.1-0.6-2.9-1l0.8-3.1c0.7,0.3,1.5,0.6,2.4,0.8c0.9,0.2,1.7,0.3,2.5,0.3c1.4,0,2.5-0.4,3.1-1.2
				c0.7-0.8,0.9-1.9,0.9-3.3v-1.5c-0.6,0.7-1.2,1.3-2,1.7c-0.8,0.4-1.7,0.6-2.7,0.6c-1.2,0-2.4-0.3-3.4-0.8l1.2-4.5
				c0,0.1,0.1,0.2,0.2,0.3c0.7,1,1.7,1.5,3.1,1.5c0.8,0,1.5-0.2,2.2-0.5c0.6-0.3,1.1-0.8,1.5-1.5v-8.2c-0.4-0.7-0.8-1.2-1.5-1.5
				c-0.6-0.4-1.3-0.6-2.1-0.6c-0.2,0-0.3,0-0.5,0l0.9-3.2c0.5,0.1,0.9,0.3,1.3,0.5c0.8,0.5,1.5,1.1,2.2,2l0.3-2.3L49,30
				C49,30.1,49,30,49,30z"/>
			<path d="M58.5,49c-1.7,0-3.3-0.4-4.6-1.2c-1.3-0.8-2.3-1.9-3-3.3c-0.7-1.4-1.1-3-1.1-4.7v-0.7c0-1.8,0.3-3.4,1.1-4.8
				c0.7-1.4,1.7-2.5,2.9-3.3c1.2-0.8,2.6-1.2,4.2-1.2c1.7,0,3.1,0.3,4.2,1c1.1,0.7,2,1.6,2.6,2.9c0.6,1.2,0.9,2.7,0.9,4.5v2.5H54.4
				l0,0.1c0,0.9,0.2,1.9,0.6,2.6c0.3,0.7,0.9,1.4,1.5,1.8c0.7,0.5,1.5,0.7,2.4,0.7c1,0,1.9-0.1,2.8-0.4c0.8-0.3,1.6-0.7,2.3-1.2
				l1.4,2.7c-0.7,0.6-1.6,1.1-2.8,1.6C61.3,48.7,59.9,49,58.5,49z M54.4,37.5h7.2V37c0-0.8-0.1-1.5-0.4-2.2
				c-0.2-0.6-0.6-1.1-1.1-1.4c-0.5-0.3-1.2-0.5-2-0.5c-0.7,0-1.3,0.2-1.9,0.6c-0.5,0.4-0.9,0.9-1.2,1.6
				C54.6,35.8,54.4,36.5,54.4,37.5L54.4,37.5z"/>
			<path d="M76.2,49c-1.8,0-3.3-0.4-4.6-1.2c-1.3-0.8-2.3-1.9-2.9-3.3s-1-3-1-4.9v-0.3c0-1.9,0.3-3.5,1-4.9c0.7-1.4,1.7-2.5,2.9-3.3
				c1.3-0.8,2.8-1.2,4.6-1.2c1.8,0,3.3,0.4,4.6,1.2c1.3,0.8,2.3,1.9,2.9,3.3s1,3,1,4.9v0.3c0,1.9-0.3,3.5-1,4.9
				c-0.7,1.4-1.7,2.5-2.9,3.3C79.5,48.5,78,49,76.2,49z M76.2,45.6c0.9,0,1.7-0.3,2.4-0.8c0.6-0.5,1.1-1.2,1.4-2.2
				c0.3-0.9,0.5-2,0.5-3.1v-0.3c0-1.2-0.2-2.3-0.5-3.1c-0.3-0.9-0.8-1.6-1.4-2.2s-1.4-0.8-2.4-0.8c-0.9,0-1.7,0.3-2.4,0.8
				c-0.6,0.5-1.1,1.2-1.4,2.2c-0.3,0.9-0.5,2-0.5,3.1v0.3c0,1.2,0.2,2.3,0.5,3.1c0.3,0.9,0.8,1.6,1.4,2.2
				C74.4,45.4,75.2,45.6,76.2,45.6z"/>
			<path d="M85.6,48.5v-2.6l2.6-0.5V25l-2.8-0.5v-2.6h7v23.5l2.6,0.5v2.6C95.1,48.5,85.6,48.5,85.6,48.5z"/>
		</g>
		<path class="st2" d="M11.3,20.2c0-0.7-0.3-1.3-0.9-1.7c-0.6-0.4-1.6-0.7-3-1c-1.4-0.3-2.6-0.7-3.6-1.1c-2.1-1-3.1-2.5-3.1-4.4
			c0-1.6,0.7-2.9,2-4s3-1.6,5.1-1.6c2.2,0,4,0.6,5.3,1.6c1.4,1.1,2,2.5,2,4.3H11c0-0.8-0.3-1.5-0.9-2C9.5,9.8,8.7,9.5,7.8,9.5
			c-0.9,0-1.6,0.2-2.3,0.6c-0.6,0.5-0.8,1-0.8,1.7c0,0.6,0.3,1.1,0.8,1.5C6,13.6,7.1,14,8.7,14.3c1.6,0.3,2.9,0.8,3.8,1.3
			c0.9,0.5,1.6,1.1,2.1,1.8c0.5,0.7,0.7,1.5,0.7,2.5c0,1.7-0.7,3-2.1,4c-1.4,1-3.2,1.6-5.4,1.6c-1.5,0-2.9-0.3-4-0.8
			S1.7,23.5,1,22.5c-0.7-1-1-2-1-3.1h4c0,0.9,0.5,1.7,1.1,2.3c0.7,0.5,1.6,0.8,2.7,0.8c1.1,0,1.9-0.2,2.5-0.6
			C11,21.4,11.3,20.9,11.3,20.2z"/>
		<path d="M36.3,25.2L36.3,25.2"/>
		<polygon class="st2" points="41.4,6.7 36.3,25.2 32.9,25.2 28.9,12.5 25,25.2 21.6,25.2 16.5,6.7 20.5,6.7 23.5,19.4 27.4,6.7 
			30.5,6.7 34.4,19.5 37.3,6.7 		"/>
		<path class="st2" d="M49.9,8c-1.1-0.9-2.5-1.4-4.1-1.6l-0.8,3c0.8,0,1.5,0.3,2,0.8c0.6,0.5,0.9,1.2,0.9,2H52
			C51.9,10.5,51.2,9.1,49.9,8z M51.4,17.5c-0.5-0.7-1.1-1.3-2.1-1.8c-0.9-0.5-2.2-0.9-3.8-1.3c-0.7-0.2-1.3-0.3-1.7-0.5l-0.9,3.3
			c0.4,0.1,0.8,0.2,1.2,0.3c1.4,0.3,2.4,0.6,3,1c0.6,0.4,0.9,0.9,0.9,1.7c0,0.7-0.3,1.2-0.8,1.6c-0.6,0.4-1.4,0.6-2.5,0.6
			c-1.1,0-2-0.3-2.7-0.8c0,0-0.2-0.1-0.2-0.2l-0.9,3.4c1.1,0.5,2.4,0.7,3.8,0.7c2.3,0,4-0.5,5.4-1.6c1.4-1,2.1-2.4,2.1-4
			C52.1,19,51.8,18.1,51.4,17.5z"/>
		<path class="st2" d="M65.4,20.2c0-0.7-0.3-1.3-0.9-1.7c-0.6-0.4-1.6-0.7-3-1c-1.4-0.3-2.6-0.7-3.6-1.1c-2.1-1-3.1-2.5-3.1-4.4
			c0-1.6,0.7-2.9,2-4c1.4-1.1,3-1.6,5.1-1.6c2.2,0,4,0.6,5.3,1.6c1.4,1.1,2,2.5,2,4.3h-4.2c0-0.8-0.3-1.5-0.9-2
			c-0.6-0.5-1.4-0.8-2.4-0.8c-0.9,0-1.6,0.2-2.3,0.6c-0.6,0.5-0.8,1-0.8,1.7c0,0.6,0.3,1.1,0.8,1.5c0.6,0.3,1.6,0.7,3.3,1.1
			c1.6,0.3,2.9,0.8,3.8,1.3c0.9,0.5,1.6,1.1,2.1,1.8c0.5,0.7,0.7,1.5,0.7,2.5c0,1.7-0.7,3-2.1,4c-1.4,1-3.2,1.6-5.4,1.6
			c-1.5,0-2.9-0.3-4-0.8c-1.2-0.6-2.1-1.3-2.8-2.3c-0.7-1-1-2-1-3.1h4c0,0.9,0.5,1.7,1.1,2.3c0.7,0.5,1.6,0.8,2.7,0.8
			c1.1,0,1.9-0.2,2.5-0.6C65.1,21.4,65.4,20.9,65.4,20.2z"/>
		<line class="st3" x1="36.3" y1="25.2" x2="36.3" y2="25.2"/>
		<polygon class="st1" points="47.5,0 46.4,4.1 42.1,4.1 43.2,0 		"/>
	</g>
</g>
</svg>
