<?xml version="1.0" encoding="utf-8"?>
<!-- Generator: Adobe Illustrator 28.1.0, SVG Export Plug-In . SVG Version: 6.00 Build 0)  -->
<svg version="1.1" id="Ebene_1" xmlns="http://www.w3.org/2000/svg" xmlns:xlink="http://www.w3.org/1999/xlink" x="0px" y="0px"
	 viewBox="0 0 410 125" style="enable-background:new 0 0 410 125;" xml:space="preserve">
<style type="text/css">
	.st0{enable-background:new    ;}
	.st1{fill:#759964;}
	.st2{fill:#706F6F;}
	.st3{fill:none;}
</style>
<g id="viewer">
	<g class="st0">
		<path class="st1" d="M208.4,98.6l-10.7-27.7l-3.5-0.5v-4.7h15v4.7l-3.8,0.6l5.9,16.5l0.8,2.6h0.2l0.9-2.6l6-16.5l-4.2-0.6v-4.7h15
			v4.7l-3.6,0.5l-10.7,27.6H208.4z"/>
		<path class="st1" d="M232.7,98.6v-4.7l4.6-0.9V71.3l-4.8-0.9v-4.7H245V93l4.5,0.9v4.7H232.7z M237,58.2v-7.1h8v7.1H237z"/>
	</g>
	<g class="st0">
		<path class="st1" d="M268.4,99.2c-3.1,0-5.8-0.7-8.1-2.1s-4.1-3.3-5.3-5.8c-1.3-2.5-1.9-5.3-1.9-8.4v-1.3c0-3.2,0.6-6.1,1.9-8.6
			c1.2-2.5,3-4.5,5.2-5.9s4.7-2.1,7.5-2.1c3,0,5.5,0.6,7.5,1.8c2,1.2,3.5,2.9,4.6,5.1c1,2.2,1.6,4.8,1.6,7.9v4.4H261l-0.1,0.2
			c0.1,1.7,0.4,3.3,1.1,4.6c0.6,1.3,1.6,2.4,2.7,3.2c1.2,0.8,2.6,1.2,4.3,1.2c1.8,0,3.4-0.2,4.9-0.7s2.8-1.2,4-2.1l2.4,4.8
			c-1.3,1.1-2.9,2-5,2.8S271.1,99.2,268.4,99.2z M261.1,78.9h12.7v-0.8c0-1.4-0.2-2.7-0.7-3.8c-0.4-1.1-1.1-1.9-2-2.5
			c-0.9-0.6-2.1-0.9-3.5-0.9c-1.2,0-2.3,0.3-3.3,1c-0.9,0.7-1.7,1.6-2.2,2.8c-0.6,1.2-0.9,2.5-1.1,4L261.1,78.9z"/>
	</g>
	<g class="st0">
		<path class="st1" d="M294.5,98.6L286.4,71l-3.9-0.6v-4.7h14.9v4.7l-3.7,0.7l3.7,14.3l0.8,3.1h0.2l1.1-3.1l6.9-19.7h5.6l6.7,19.8
			l1.1,3.5h0.2l1.1-3.5l4-14.4l-4-0.7v-4.7h14.6v4.7l-3.8,0.6l-8.4,27.5h-6.7l-6.3-17.8l-1.3-4.3H309l-1.3,4.3l-6.4,17.8H294.5z"/>
	</g>
	<g class="st0">
		<path class="st1" d="M351.6,99.2c-3.1,0-5.8-0.7-8.1-2.1s-4.1-3.3-5.3-5.8s-1.9-5.3-1.9-8.4v-1.3c0-3.2,0.6-6.1,1.9-8.6
			c1.2-2.5,3-4.5,5.2-5.9c2.2-1.4,4.7-2.1,7.5-2.1c3,0,5.5,0.6,7.5,1.8c2,1.2,3.5,2.9,4.6,5.1c1,2.2,1.5,4.8,1.5,7.9v4.4h-20.2
			l-0.1,0.2c0.1,1.7,0.4,3.3,1.1,4.6c0.6,1.3,1.5,2.4,2.7,3.2c1.2,0.8,2.6,1.2,4.3,1.2c1.8,0,3.4-0.2,4.9-0.7s2.8-1.2,4-2.1l2.4,4.8
			c-1.3,1.1-2.9,2-5,2.8S354.3,99.2,351.6,99.2z M344.3,78.9h12.7v-0.8c0-1.4-0.2-2.7-0.7-3.8s-1.1-1.9-2-2.5
			c-0.9-0.6-2.1-0.9-3.5-0.9c-1.2,0-2.3,0.3-3.3,1c-0.9,0.7-1.7,1.6-2.2,2.8c-0.6,1.2-0.9,2.5-1.1,4L344.3,78.9z"/>
		<path class="st1" d="M369.1,98.6v-4.7l4.6-0.9V71.3l-4.8-0.9v-4.7h11.9l0.4,4.1l0.1,0.7c0.9-1.7,1.9-3.1,3.2-4
			c1.3-0.9,2.8-1.4,4.5-1.4c0.6,0,1.2,0.1,1.8,0.2s1.2,0.2,1.6,0.3l-0.9,7.1l-4.3-0.2c-1.4-0.1-2.5,0.2-3.5,0.8s-1.7,1.5-2.3,2.6V93
			l4.6,0.9v4.7H369.1z"/>
	</g>
	<g>
		<g>
			<path d="M98.9,65.6v4.7l-4,0.8v26.6c0,2.9-0.6,5.3-1.7,7.4s-2.8,3.7-5,4.9c-2.2,1.1-4.8,1.7-7.9,1.7c-1.6,0-3.4-0.2-5.4-0.7
				c-2-0.4-3.7-1-5.2-1.8l1.5-5.6c1.3,0.6,2.7,1.1,4.3,1.4c1.6,0.4,3,0.5,4.4,0.5c2.5,0,4.4-0.7,5.5-2.1c1.2-1.4,1.7-3.3,1.7-5.9
				v-2.6c-1,1.3-2.2,2.3-3.6,3s-3,1-4.8,1c-2.2,0-4.2-0.5-6-1.4l2.1-7.9c0.1,0.2,0.2,0.4,0.3,0.6c1.2,1.8,3,2.7,5.5,2.7
				c1.5,0,2.7-0.3,3.8-0.9c1-0.6,1.9-1.5,2.6-2.7V74.8c-0.7-1.2-1.5-2.1-2.6-2.7c-1.1-0.7-2.3-1-3.7-1c-0.3,0-0.5,0-0.8,0l1.6-5.7
				c0.8,0.2,1.6,0.5,2.3,0.9c1.5,0.8,2.7,2,3.8,3.5l0.6-4.1h10.7C98.9,65.7,98.9,65.6,98.9,65.6z"/>
			<path d="M115.7,99.2c-3.1,0-5.8-0.7-8.1-2.1c-2.3-1.4-4.1-3.3-5.3-5.8c-1.3-2.5-1.9-5.3-1.9-8.4v-1.3c0-3.2,0.6-6.1,1.9-8.6
				c1.2-2.5,3-4.5,5.2-5.9s4.7-2.1,7.5-2.1c3,0,5.5,0.6,7.5,1.8c2,1.2,3.5,2.9,4.6,5.1c1,2.2,1.6,4.8,1.6,7.9v4.4h-20.2l-0.1,0.2
				c0.1,1.7,0.4,3.3,1.1,4.6c0.6,1.3,1.6,2.4,2.7,3.2c1.2,0.8,2.6,1.2,4.3,1.2c1.8,0,3.4-0.2,4.9-0.7s2.8-1.2,4-2.1l2.4,4.8
				c-1.3,1.1-2.9,2-5,2.8C120.7,98.8,118.3,99.2,115.7,99.2z M108.4,78.8h12.7V78c0-1.4-0.2-2.7-0.7-3.8c-0.4-1.1-1.1-1.9-2-2.5
				s-2.1-0.9-3.5-0.9c-1.2,0-2.3,0.3-3.3,1c-0.9,0.7-1.7,1.6-2.2,2.8c-0.6,1.2-0.9,2.5-1.1,4L108.4,78.8z"/>
			<path d="M147.1,99.2c-3.2,0-5.9-0.7-8.1-2.1c-2.3-1.4-4-3.4-5.2-5.9s-1.8-5.4-1.8-8.7v-0.6c0-3.3,0.6-6.2,1.8-8.7s3-4.5,5.2-5.9
				c2.3-1.4,5-2.2,8.1-2.2c3.2,0,5.9,0.7,8.1,2.1c2.3,1.4,4,3.4,5.2,5.9s1.8,5.4,1.8,8.7v0.6c0,3.3-0.6,6.2-1.8,8.7s-3,4.5-5.2,5.9
				C153,98.5,150.3,99.2,147.1,99.2z M147.1,93.3c1.7,0,3.1-0.5,4.2-1.4c1.1-0.9,1.9-2.2,2.5-3.8c0.5-1.6,0.8-3.5,0.8-5.6v-0.6
				c0-2.1-0.3-4-0.8-5.6s-1.4-2.9-2.5-3.8s-2.5-1.4-4.3-1.4c-1.7,0-3.1,0.5-4.2,1.4c-1.1,0.9-1.9,2.2-2.5,3.8
				c-0.5,1.6-0.8,3.5-0.8,5.6v0.6c0,2.1,0.3,4,0.8,5.6s1.4,2.9,2.5,3.8C144,92.8,145.4,93.3,147.1,93.3z"/>
			<path d="M163.9,98.5v-4.7l4.6-0.9V56.7l-4.9-0.9v-4.7h12.5v41.8l4.6,0.9v4.7C180.7,98.5,163.9,98.5,163.9,98.5z"/>
		</g>
		<path class="st2" d="M31.9,48.2c0-1.3-0.5-2.3-1.6-3s-2.9-1.3-5.4-1.8s-4.6-1.2-6.3-2c-3.7-1.8-5.5-4.4-5.5-7.8
			c0-2.8,1.2-5.2,3.6-7.1s5.4-2.9,9.1-2.9c3.9,0,7.1,1,9.5,2.9s3.6,4.5,3.6,7.6h-7.4c0-1.4-0.5-2.6-1.6-3.5s-2.5-1.4-4.2-1.4
			c-1.6,0-2.9,0.4-4,1.1c-1,0.8-1.5,1.8-1.5,3c0,1.1,0.5,2,1.4,2.6c1,0.6,2.9,1.3,5.8,1.9c2.9,0.6,5.2,1.4,6.8,2.3
			c1.7,0.9,2.9,1.9,3.7,3.2c0.8,1.2,1.2,2.7,1.2,4.5c0,3-1.2,5.4-3.7,7.2s-5.7,2.8-9.6,2.8c-2.7,0-5.1-0.5-7.2-1.5s-3.7-2.3-4.9-4
			s-1.8-3.5-1.8-5.5h7.2c0.1,1.7,0.8,3.1,2,4s2.8,1.4,4.8,1.4c1.9,0,3.4-0.4,4.4-1.1C31.4,50.3,31.9,49.4,31.9,48.2z"/>
		<path d="M76.3,57.1L76.3,57.1"/>
		<polygon class="st2" points="85.3,24.2 76.3,57.1 70.3,57.1 63.2,34.5 56.3,57.1 50.2,57.1 41.2,24.2 48.4,24.2 53.7,46.7 
			60.5,24.2 66,24.2 72.9,46.9 78.1,24.2 		"/>
		<path class="st2" d="M100.4,26.5c-2-1.6-4.4-2.5-7.3-2.8l-1.5,5.4c1.4,0.1,2.6,0.6,3.5,1.4c1.1,0.9,1.6,2.1,1.6,3.5h7.4
			C104,31,102.8,28.5,100.4,26.5z M103.1,43.3c-0.8-1.2-2-2.3-3.7-3.2s-3.9-1.6-6.8-2.3c-1.2-0.3-2.3-0.5-3.1-0.8l-1.6,5.8
			c0.7,0.2,1.4,0.3,2.1,0.5c2.5,0.5,4.3,1.1,5.4,1.8s1.6,1.7,1.6,3c0,1.2-0.5,2.2-1.5,2.9s-2.5,1.1-4.4,1.1c-2,0-3.6-0.5-4.8-1.4
			c-0.1-0.1-0.3-0.2-0.4-0.4l-1.6,6c2,0.9,4.3,1.3,6.8,1.3c4,0,7.2-0.9,9.6-2.8c2.5-1.8,3.7-4.2,3.7-7.2
			C104.3,46,103.9,44.5,103.1,43.3z"/>
		<path class="st2" d="M128,48.2c0-1.3-0.5-2.3-1.6-3s-2.9-1.3-5.4-1.8s-4.6-1.2-6.3-2c-3.7-1.8-5.5-4.4-5.5-7.8
			c0-2.8,1.2-5.2,3.6-7.1s5.4-2.9,9.1-2.9c3.9,0,7.1,1,9.5,2.9s3.6,4.5,3.6,7.6h-7.4c0-1.4-0.5-2.6-1.6-3.5s-2.5-1.4-4.2-1.4
			c-1.6,0-2.9,0.4-4,1.1c-1,0.8-1.5,1.8-1.5,3c0,1.1,0.5,2,1.4,2.6c1,0.6,2.9,1.3,5.8,1.9c2.9,0.6,5.2,1.4,6.8,2.3
			c1.7,0.9,2.9,1.9,3.7,3.2c0.8,1.2,1.2,2.7,1.2,4.5c0,3-1.2,5.4-3.7,7.2s-5.7,2.8-9.6,2.8c-2.7,0-5.1-0.5-7.2-1.5s-3.7-2.3-4.9-4
			c-1.2-1.7-1.8-3.5-1.8-5.5h7.2c0.1,1.7,0.8,3.1,2,4s2.8,1.4,4.8,1.4c1.9,0,3.4-0.4,4.4-1.1C127.5,50.3,128,49.4,128,48.2z"/>
		<line class="st3" x1="76.3" y1="57.1" x2="76.3" y2="57.1"/>
		<polygon class="st1" points="96.2,12.3 94.2,19.6 86.6,19.6 88.6,12.3 		"/>
	</g>
</g>
</svg>
