<svg id="i_cam_tp" xmlns="http://www.w3.org/2000/svg" width="40" height="40" viewBox="0 0 40 40">
  <circle id="Ellipse_714" data-name="Ellipse 714" cx="20" cy="20" r="20" fill="#b9271a"/>
  <path id="Pfad_1879" data-name="Pfad 1879" d="M612.269,471.211l9.892,5.711-1,1.732-9.892-5.711-9.892,5.711-1-1.732,9.892-5.711V459.788h2Zm-2,6.443h2v-2h-2Zm0,3h2v-2h-2Zm0,3h2v-2h-2Zm6.7-14.134-1-1.732-1.732,1,1,1.732Zm2.6-1.5-1-1.732-1.732,1,1,1.732Zm2.6-1.5-1-1.732-1.732,1,1,1.732Zm-14.856,4,1-1.732-1.732-1-1,1.732Zm-2.6-1.5,1-1.732-1.732-1-1,1.732Zm-1.6-3.232-1.732-1-1,1.732,1.732,1Z" transform="translate(-591.273 -451.721)" fill="#fff"/>
</svg>
