<svg id="i_layer_01" xmlns="http://www.w3.org/2000/svg" width="24" height="24" viewBox="0 0 24 24">
  <rect id="Rechteck_1908" data-name="Rechteck 1908" width="24" height="24" fill="none"/>
  <path id="icons8-buffer" d="M15,5a1.089,1.089,0,0,0-.42.083L3.18,10.34c-.24.111-.24.284,0,.395l11.4,5.259a1.105,1.105,0,0,0,.84,0l11.4-5.259c.24-.111.24-.284,0-.395L15.42,5.083A1.089,1.089,0,0,0,15,5Zm0,1.922,7.839,3.617L15,14.155,7.161,10.539Zm-10.3,6.8L3.18,14.48c-.24.12-.24.305,0,.425l11.4,5.7a1.024,1.024,0,0,0,.84,0l11.4-5.7c.24-.12.24-.305,0-.425L25.3,13.721,15.42,18.659a1.024,1.024,0,0,1-.84,0Zm0,4.615L3.18,19.1c-.24.12-.24.305,0,.425l11.4,5.7a1.024,1.024,0,0,0,.84,0l11.4-5.7c.24-.12.24-.305,0-.425L25.3,18.336,15.42,23.274a1.024,1.024,0,0,1-.84,0Z" transform="translate(-3 -3)" fill="#868E96"/>
</svg>
