<svg id="i_linie_zeichnen" xmlns="http://www.w3.org/2000/svg" width="24" height="24" viewBox="0 0 24 24">
  <path id="icons_linie_zeichnen" d="M20,2a2,2,0,0,0-1.965,1.625L14.469,4.645A2,2,0,1,0,12.994,8l3.4,6.807q-.03.038-.059.078l-4.459-.557a2,2,0,0,0-3.828,1.123L4.795,18.166a2.007,2.007,0,1,0,1.152,1.383l3.258-2.715a2,2,0,0,0,2.455-.719l4.459.557A2,2,0,1,0,18.006,14L14.6,7.193a2,2,0,0,0,.363-.818l3.566-1.02A2,2,0,1,0,20,2Z" fill="#0b7285"/>
  <rect id="Rechteck_1968" data-name="Rechteck 1968" width="24" height="24" fill="none"/>
</svg>
