<svg xmlns="http://www.w3.org/2000/svg" width="24" height="24" viewBox="0 0 24 24"><defs><style>.a{fill:none;}.b{fill:#868E96;}</style></defs><rect class="a" width="24" height="24"/><path class="b" d="M12.008,2.01A7.005,7.005,0,0,0,5.008,9c0,4.483,5.973,11.765,6.228,12.072l.772.936.772-.936c.254-.308,6.228-7.589,6.228-12.072A7,7,0,0,0,12.008,2.01Zm0,2a5,5,0,0,1,5,4.994c0,2.7-3.118,7.357-5,9.822-1.88-2.463-5-7.113-5-9.822A5,5,0,0,1,12.008,4.01Zm0,2.49a2.5,2.5,0,1,0,2.5,2.5A2.5,2.5,0,0,0,12.008,6.5Z" transform="translate(0 -0.011)"/></svg>
