<svg id="i_screenshot" xmlns="http://www.w3.org/2000/svg" width="24" height="24" viewBox="0 0 24 24">
  <rect id="Rechteck_1975" data-name="Rechteck 1975" width="24" height="24" fill="none"/>
  <path id="i_screenshot-2" data-name="i_screenshot" d="M5,3A2,2,0,0,0,3,5H5ZM7,3V5H9V3Zm4,0V5h2V3Zm4,0V5h2V3Zm4,0V5h2A2,2,0,0,0,19,3ZM3,7V9H5V7ZM19,7V9h2V7ZM12,9l-1.332,2H8.5A1.5,1.5,0,0,0,7,12.5v7A1.5,1.5,0,0,0,8.5,21h11A1.5,1.5,0,0,0,21,19.5v-7A1.5,1.5,0,0,0,19.5,11H17.332L16,9ZM3,11v2H5V11Zm10.07,0H14.93l.74,1.109.594.891H19v6H9V13h2.736l.594-.891ZM14,14a2,2,0,1,0,2,2A2,2,0,0,0,14,14ZM3,15v2H5V15Zm0,4a2,2,0,0,0,2,2V19Z" fill="#0b7285"/>
</svg>
