<svg id="i_slicing" xmlns="http://www.w3.org/2000/svg" width="24" height="24" viewBox="0 0 24 24">
  <rect id="Rechteck_1982" data-name="Rechteck 1982" width="24" height="24" fill="none"/>
  <path id="icons8-scalpel" d="M23.969,4a4.026,4.026,0,0,0-2.844,1.188l-8.531,8.531a1.953,1.953,0,0,0-.437.656,13.827,13.827,0,0,1-.781,1.281,4.734,4.734,0,0,1-.844.969A17.771,17.771,0,0,0,6.75,18.938C5.258,20.281,4,22.5,4,26v1H5c4.641,0,6.984-1.113,8.219-2.594a7.285,7.285,0,0,0,1.156-2.125,4.134,4.134,0,0,1,.531-1.094,2.686,2.686,0,0,1,1.438-.812,4.146,4.146,0,0,0,2-1.031l8.469-8.469A4.031,4.031,0,0,0,23.969,4Zm0,2a2.029,2.029,0,0,1,1.438.594,1.99,1.99,0,0,1,0,2.844l-2.844,2.875L19.688,9.438l2.875-2.844A1.959,1.959,0,0,1,23.969,6Zm-5.687,4.875,2.844,2.844-1.437,1.438-2.844-2.844Zm-2.844,2.844,2.844,2.844-1.344,1.375c-.031.031-.062.035-.094.063L14,15.156v-.031Zm-2.5,3.188,1.906,1.906a4.841,4.841,0,0,0-1.344.938,4.708,4.708,0,0,0-1,1.813,5.315,5.315,0,0,1-.812,1.563c-.68.816-2.3,1.523-5.5,1.719a6.758,6.758,0,0,1,1.906-4.437,21.821,21.821,0,0,1,3.5-2.094A4.895,4.895,0,0,0,12.938,16.906Z" transform="translate(-4 -3.5)" fill="#0b7285"/>
</svg>
