<?xml version="1.0" encoding="UTF-8" standalone="no"?>
<svg
   xmlns:dc="http://purl.org/dc/elements/1.1/"
   xmlns:cc="http://creativecommons.org/ns#"
   xmlns:rdf="http://www.w3.org/1999/02/22-rdf-syntax-ns#"
   xmlns:svg="http://www.w3.org/2000/svg"
   xmlns="http://www.w3.org/2000/svg"
   viewBox="0 0 341.33334 341.33334"
   height="341.33334"
   width="341.33334"
   xml:space="preserve"
   id="svg2"
   version="1.1"><metadata
     id="metadata8"><rdf:RDF><cc:Work
         rdf:about=""><dc:format>image/svg+xml</dc:format><dc:type
           rdf:resource="http://purl.org/dc/dcmitype/StillImage" /><dc:title></dc:title></cc:Work></rdf:RDF></metadata><defs
     id="defs6" /><g
     transform="matrix(1.3333333,0,0,-1.3333333,0,341.33333)"
     id="g10"><g
       transform="matrix(0.75,0,0,-0.75,0,256)"
       id="g12"><g
         id="g14"><g
           id="g16" /></g><g
         id="g18"><g
           id="g20"><path
             id="path22"
             style="fill:#ffffff;fill-opacity:1;fill-rule:nonzero;stroke:none"
             d="M 0,0 H 341 V 341 H 0 Z" /><path
             id="path24"
             style="fill:#dddddd;fill-opacity:1;fill-rule:evenodd;stroke:none"
             d="m 230.52189,148.0913 -2.19818,4.42384 1.6508,4.0374 -1.662,2.41917 9.63289,-0.63894 5.06358,1.15989 5.25842,2.4346 -0.77758,2.66738 6.9606,1.62175 4.29002,2.98248 6.26426,-1.24724 0.44284,-3.20968 2.71109,0.5737 2.85486,-3.55703 6.53785,2.63392 -0.79857,4.42319 -2.41225,2.97005 0.93701,1.76896 -2.86026,3.19069 1.32453,2.55545 3.82132,0.98215 -0.7873,3.52406 -8.73756,-0.4136 -2.3559,-1.11209 -0.3064,-2.97096 -5.53191,1.472 -3.63963,3.60652 -0.70567,4.15922 4.50534,0.75731 1.62296,2.02378 -2.75094,1.95925 3.29201,4.71169 -5.11302,1.84021 -0.75244,-2.39155 -2.92805,-0.93776 0.0222,-3.25289 -4.40079,-1.46078 -6.72576,2.21839 -2.30521,-0.24717 -0.41519,2.34956 -3.7143,0.33589 -5.15308,-1.27901 -3.58286,-3.15612 0.12243,-6.50921 -2.66527,2.06505 -1.76579,-1.8229 -4.49855,0.39047 -1.70868,2.41693 2.41747,4.47609 -0.55662,2.88019 -4.46073,5.82381 -5.97334,2.97599 0.22856,2.6425 -2.94409,0.70683 0.55296,2.75635 -1.69166,1.33003 4.65594,3.42179 -2.82002,3.73617 -4.05729,-1.10987 -1.21237,-3.05571 -6.4372,-5.0335 2.89941,-3.31765 -5.39227,-2.2929 -1.39277,1.23205 -5.01837,-1.19998 -3.90014,-4.74659 -3.13219,-0.71785 -2.01138,-3.21302 1.84797,-1.74205 0.0289,-5.43338 -4.86383,-0.37118 -3.83111,2.14457 1.17662,1.53269 -4.95608,3.33013 -3.61658,0.36065 -2.57726,1.73495 3.88658,4.11365 -2.7908,3.50014 -3.60924,0.53017 0.0206,2.80256 -2.26431,2.35089 -3.93981,-0.052 -2.20143,3.94173 -6.33622,-0.35478 -3.28271,-2.44862 -8.29924,0.56144 -5.74467,3.23906 -4.20572,-1.21172 -5.21565,3.06731 -3.54425,-0.0374 -3.67056,-3.13016 -0.98972,-2.75292 -4.86333,-4.22693 -1.63668,1.10778 0.4256,-3.98819 -4.166794,-0.26459 -0.580482,-3.63618 2.999968,-3.92094 -3.919085,-2.43148 1.792132,-4.64527 -6.838078,-1.33501 -7.995205,-0.1 -4.592442,1.99255 -4.44235,0.59395 -4.039642,2.12688 -1.641702,2.38433 3.690689,4.26063 -8.257087,4.15696 -3.651539,-0.53103 -4.66103,1.1197 3.746779,-5.40378 4.461292,-0.62404 -1.084613,-1.65386 3.317743,-3.98708 -5.21068,-2.4713 0.439051,-2.40975 4.119989,-3.92283 -2.269033,-1.52978 8.425897,-5.61177 4.406766,-1.64304 4.259694,-3.17609 -1.160472,-0.62456 1.465436,-4.3656 -1.568463,-1.88284 3.542728,-1.81814 6.32575,-1.59444 4.226285,-2.64678 -1.380476,-0.71941 5.626691,-3.14586 6.530183,-4.91011 0.4818,-2.99071 4.75822,-1.71698 0.21087,-1.71615 -8.1713,-0.56174 5.23639,-3.69001 -0.0939,-2.30243 10.44823,0.0281 -1.51132,2.51981 3.75058,1.11228 6.83004,-0.56605 6.16447,-3.20137 -0.27934,-2.32348 6.89178,-2.58553 1.60369,3.14151 10.5005,-2.67326 1.1503,1.91434 8.60581,-0.46941 5.59448,-3.09276 4.13479,0.52769 1.9995,1.92753 8.12133,-0.49319 -1.86948,-1.04547 2.89684,-1.54619 3.28717,1.84958 1.18084,-3.73388 -6.85309,1.5035 -3.02184,-1.60361 4.09813,-4.86448 7.8887,-1.24053 3.85231,5.19247 3.90806,-2.17985 3.33183,4.03739 6.99135,-1.5325 7.51186,1.53887 4.22116,-0.19106 6.78671,1.88549 4.95617,3.38329 3.10063,0.46973 0.23344,2.34182 4.46781,1.96368 0.9532,3.11548 -2.42482,1.2127 -4.60455,4.69473 v 0 z m -27.91307,63.70122 0.6439,0.60026 0.0798,-1.05149 -0.72367,0.45123 v 0 z m -12.0185,-84.33926 -2.61376,-1.11374 0.64959,1.28311 1.96417,-0.16937 z" /></g><g
           id="g26"><path
             id="path28"
             style="fill:#f7f7f7;fill-opacity:1;fill-rule:evenodd;stroke:#898989;stroke-width:1.51181102;stroke-linecap:square;stroke-linejoin:bevel;stroke-miterlimit:10;stroke-dasharray:none;stroke-opacity:1"
             d="m 131.21484,163.92417 c 0,1.56553 -1.26911,2.83464 -2.83464,2.83464 -1.56553,0 -2.83465,-1.26911 -2.83465,-2.83464 0,-1.56553 1.26912,-2.83465 2.83465,-2.83465 1.56553,0 2.83464,1.26912 2.83464,2.83465 z" /><path
             id="path30"
             style="fill:#f7f7f7;fill-opacity:1;fill-rule:evenodd;stroke:#898989;stroke-width:1.51181102;stroke-linecap:square;stroke-linejoin:bevel;stroke-miterlimit:10;stroke-dasharray:none;stroke-opacity:1"
             d="m 138.36202,134.70907 c 0,1.56553 -1.26911,2.83464 -2.83464,2.83464 -1.56554,0 -2.83465,-1.26911 -2.83465,-2.83464 0,-1.56554 1.26911,-2.83465 2.83465,-2.83465 1.56553,0 2.83464,1.26911 2.83464,2.83465 z" /><path
             id="path32"
             style="fill:#f7f7f7;fill-opacity:1;fill-rule:evenodd;stroke:#898989;stroke-width:1.51181102;stroke-linecap:square;stroke-linejoin:bevel;stroke-miterlimit:10;stroke-dasharray:none;stroke-opacity:1"
             d="m 67.112012,200.59676 c 0,1.56553 -1.269114,2.83465 -2.834646,2.83465 -1.565532,0 -2.834646,-1.26912 -2.834646,-2.83465 0,-1.56553 1.269114,-2.83464 2.834646,-2.83464 1.565532,0 2.834646,1.26911 2.834646,2.83464 z" /><path
             id="path34"
             style="fill:#f7f7f7;fill-opacity:1;fill-rule:evenodd;stroke:#898989;stroke-width:1.51181102;stroke-linecap:square;stroke-linejoin:bevel;stroke-miterlimit:10;stroke-dasharray:none;stroke-opacity:1"
             d="m 90.991598,184.87336 c 0,1.56553 -1.269114,2.83465 -2.834646,2.83465 -1.565531,0 -2.834645,-1.26912 -2.834645,-2.83465 0,-1.56553 1.269114,-2.83465 2.834645,-2.83465 1.565532,0 2.834646,1.26912 2.834646,2.83465 z" /><path
             id="path36"
             style="fill:#f7f7f7;fill-opacity:1;fill-rule:evenodd;stroke:#898989;stroke-width:1.51181102;stroke-linecap:square;stroke-linejoin:bevel;stroke-miterlimit:10;stroke-dasharray:none;stroke-opacity:1"
             d="m 184.70886,143.27789 c 0,1.56553 -1.26912,2.83465 -2.83465,2.83465 -1.56553,0 -2.83464,-1.26912 -2.83464,-2.83465 0,-1.56553 1.26911,-2.83464 2.83464,-2.83464 1.56553,0 2.83465,1.26911 2.83465,2.83464 z" /><path
             id="path38"
             style="fill:#f7f7f7;fill-opacity:1;fill-rule:evenodd;stroke:#898989;stroke-width:1.51181102;stroke-linecap:square;stroke-linejoin:bevel;stroke-miterlimit:10;stroke-dasharray:none;stroke-opacity:1"
             d="m 193.97899,136.86168 c 0,1.56553 -1.26911,2.83465 -2.83464,2.83465 -1.56553,0 -2.83465,-1.26912 -2.83465,-2.83465 0,-1.56553 1.26912,-2.83464 2.83465,-2.83464 1.56553,0 2.83464,1.26911 2.83464,2.83464 z" /></g></g></g></g></svg>