<?xml version="1.0" encoding="UTF-8" standalone="no"?>
<svg
   xmlns:dc="http://purl.org/dc/elements/1.1/"
   xmlns:cc="http://creativecommons.org/ns#"
   xmlns:rdf="http://www.w3.org/1999/02/22-rdf-syntax-ns#"
   xmlns:svg="http://www.w3.org/2000/svg"
   xmlns="http://www.w3.org/2000/svg"
   viewBox="0 0 228 98.666664"
   height="98.666664"
   width="228"
   xml:space="preserve"
   id="svg2"
   version="1.1"><metadata
     id="metadata8"><rdf:RDF><cc:Work
         rdf:about=""><dc:format>image/svg+xml</dc:format><dc:type
           rdf:resource="http://purl.org/dc/dcmitype/StillImage" /><dc:title></dc:title></cc:Work></rdf:RDF></metadata><defs
     id="defs6" /><g
     transform="matrix(1.3333333,0,0,-1.3333333,0,98.666667)"
     id="g10"><g
       transform="matrix(0.75,0,0,-0.75,0,74)"
       id="g12"><g
         id="g14"><g
           id="g16" /></g><g
         id="g18"><g
           id="g20"><path
             id="path22"
             style="fill:#ffffff;fill-opacity:1;fill-rule:nonzero;stroke:none"
             d="M 0,0 H 228 V 99 H 0 Z" /><path
             id="path24"
             style="fill:#dddddd;fill-opacity:1;fill-rule:evenodd;stroke:none"
             d="m 177.73504,26.314325 -2.19694,4.421323 1.64987,4.035116 -1.66105,2.417799 9.62741,-0.638582 5.06072,1.159228 5.25543,2.433218 -0.77714,2.665871 6.95665,1.620827 4.28758,2.980787 6.26071,-1.246532 0.44259,-3.207853 2.70955,0.57337 2.85324,-3.55501 6.53414,2.63243 -0.79811,4.420678 -2.41089,2.96836 0.93648,1.76796 -2.85864,3.188873 1.32378,2.554001 3.81915,0.981597 -0.78685,3.522063 -8.7326,-0.41337 -2.35456,-1.111454 -0.30623,-2.969282 -5.52878,1.471167 -3.63755,3.604472 -0.70527,4.156859 4.50278,0.756879 1.62204,2.022639 -2.74938,1.958131 3.29014,4.709017 -5.11012,1.83917 -0.75201,-2.390192 -2.92639,-0.937229 0.0222,-3.251044 -4.39829,-1.459957 -6.72195,2.21714 -2.3039,-0.24703 -0.41496,2.348222 -3.71219,0.335697 -5.15016,-1.278277 -3.58082,-3.154333 0.12236,-6.505515 -2.66376,2.063879 -1.76479,-1.82187 -4.49599,0.390249 -1.70771,2.415561 2.4161,4.473549 -0.55631,2.878559 -4.45819,5.820506 -5.96995,2.974293 0.22843,2.640999 -2.94242,0.706436 0.55264,2.754782 -1.6907,1.329274 4.6533,3.419851 -2.81842,3.734048 -4.05498,-1.109236 -1.21169,-3.053975 -6.43355,-5.03065 2.89777,-3.315765 -5.38921,-2.291594 -1.39198,1.23135 -5.01552,-1.1993 -3.89793,-4.743903 -3.13041,-0.717435 -2.01024,-3.211203 1.84692,-1.741061 0.0289,-5.430291 -4.86108,-0.370972 -3.82893,2.143357 1.17595,1.531821 -4.95326,3.328238 -3.61454,0.360444 -2.57578,1.733968 3.88436,4.111313 -2.78921,3.498156 -3.60719,0.52987 0.0206,2.800964 -2.26303,2.349558 -3.937576,-0.05193 -2.200178,3.939493 -6.33263,-0.354582 -3.280847,-2.447224 -8.294528,0.561115 -5.741411,3.237227 -4.203328,-1.21104 -5.212695,3.065572 -3.542233,-0.03742 -3.668477,-3.128389 -0.989157,-2.751357 -4.86057,-4.224523 -1.635753,1.107149 0.42536,-3.985934 -4.164432,-0.264435 -0.580153,-3.634119 2.998265,-3.918706 -3.916861,-2.430106 1.791115,-4.642629 -6.834197,-1.334258 -7.990668,-0.0999 -4.589835,1.991421 -4.439829,0.593613 -4.03735,2.125671 -1.64077,2.382974 3.688595,4.258208 -8.252402,4.154605 -3.6494664,-0.530724 -4.6583842,1.119063 3.7446516,-5.400713 4.458761,-0.623688 -1.0839974,-1.65292 3.3158594,-3.984815 -5.2077219,-2.469907 0.4388014,-2.408376 4.1176505,-3.920601 -2.2677452,-1.528915 8.4211152,-5.608582 4.404265,-1.64211 4.257276,-3.174287 -1.159813,-0.624209 1.464604,-4.36312 -1.567572,-1.881773 3.540717,-1.817106 6.322161,-1.593533 4.223886,-2.645279 -1.379692,-0.719003 5.623497,-3.144078 6.526473,-4.907327 0.481534,-2.98901 4.755515,-1.716002 0.210758,-1.715181 -8.166666,-0.561417 5.233413,-3.687921 -0.09387,-2.301123 10.442293,0.02812 -1.510463,2.518375 3.748454,1.111649 6.826164,-0.565725 6.160977,-3.199557 -0.279188,-2.322156 6.887868,-2.584062 1.602783,3.139725 10.494546,-2.67174 1.149647,1.913246 8.600924,-0.469141 5.59131,-3.091004 4.13243,0.5273936 1.99837,1.9264374 8.11673,-0.492912 -1.86843,-1.044873 2.8952,-1.5453171 3.2853,1.8485261 1.18017,-3.7317618 -6.8492,1.502652 -3.02012,-1.6026999 4.0958,-4.8617175 7.88422,-1.2398306 3.85013,5.1895276 3.90584,-2.1786141 3.32994,4.0350931 6.98738,-1.5316259 7.5076,1.537998 4.21877,-0.1909506 6.78285,1.8844226 4.95336,3.3813661 3.09887,0.469458 0.23331,2.340497 4.46527,1.962563 0.95267,3.113715 -2.42345,1.212009 -4.60194,4.692068 v 0 z m -27.89723,63.665063 0.64353,0.599925 0.0797,-1.050896 -0.72326,0.450971 v 0 z m -12.01167,-84.2913954 -2.61229,-1.1131092 0.64923,1.2823832 1.96306,-0.169274 z" /></g><g
           id="g26"><path
             id="path28"
             style="fill:#f7f7f7;fill-opacity:1;fill-rule:evenodd;stroke:#898989;stroke-width:1.51181102;stroke-linecap:square;stroke-linejoin:bevel;stroke-miterlimit:10;stroke-dasharray:none;stroke-opacity:1"
             d="m 78.485962,42.138205 c 0,1.565532 -1.269115,2.834646 -2.834646,2.834646 -1.565532,0 -2.834646,-1.269114 -2.834646,-2.834646 0,-1.565531 1.269114,-2.834645 2.834646,-2.834645 1.565531,0 2.834646,1.269114 2.834646,2.834645 z" /><path
             id="path30"
             style="fill:#f7f7f7;fill-opacity:1;fill-rule:evenodd;stroke:#898989;stroke-width:1.51181102;stroke-linecap:square;stroke-linejoin:bevel;stroke-miterlimit:10;stroke-dasharray:none;stroke-opacity:1"
             d="m 85.629082,12.939683 c 0,1.565532 -1.269114,2.834646 -2.834645,2.834646 -1.565532,0 -2.834646,-1.269114 -2.834646,-2.834646 0,-1.565531 1.269114,-2.834645 2.834646,-2.834645 1.565531,0 2.834645,1.269114 2.834645,2.834645 z" /><path
             id="path32"
             style="fill:#f7f7f7;fill-opacity:1;fill-rule:evenodd;stroke:#898989;stroke-width:1.51181102;stroke-linecap:square;stroke-linejoin:bevel;stroke-miterlimit:10;stroke-dasharray:none;stroke-opacity:1"
             d="m 14.419507,78.789988 c 0,1.565532 -1.269114,2.834646 -2.834645,2.834646 -1.565532,0 -2.8346459,-1.269114 -2.8346459,-2.834646 0,-1.565531 1.2691139,-2.834645 2.8346459,-2.834645 1.565531,0 2.834645,1.269114 2.834645,2.834645 z" /><path
             id="path34"
             style="fill:#f7f7f7;fill-opacity:1;fill-rule:evenodd;stroke:#898989;stroke-width:1.51181102;stroke-linecap:square;stroke-linejoin:bevel;stroke-miterlimit:10;stroke-dasharray:none;stroke-opacity:1"
             d="m 38.285542,63.075509 c 0,1.565532 -1.269114,2.834646 -2.834646,2.834646 -1.565532,0 -2.834646,-1.269114 -2.834646,-2.834646 0,-1.565531 1.269114,-2.834645 2.834646,-2.834645 1.565532,0 2.834646,1.269114 2.834646,2.834645 z" /><path
             id="path36"
             style="fill:#f7f7f7;fill-opacity:1;fill-rule:evenodd;stroke:#898989;stroke-width:1.51181102;stroke-linecap:square;stroke-linejoin:bevel;stroke-miterlimit:10;stroke-dasharray:none;stroke-opacity:1"
             d="m 131.94962,21.503647 c 0,1.565532 -1.26912,2.834646 -2.83465,2.834646 -1.56553,0 -2.83464,-1.269114 -2.83464,-2.834646 0,-1.565531 1.26911,-2.834645 2.83464,-2.834645 1.56553,0 2.83465,1.269114 2.83465,2.834645 z" /><path
             id="path38"
             style="fill:#f7f7f7;fill-opacity:1;fill-rule:evenodd;stroke:#898989;stroke-width:1.51181102;stroke-linecap:square;stroke-linejoin:bevel;stroke-miterlimit:10;stroke-dasharray:none;stroke-opacity:1"
             d="m 141.21449,15.091078 c 0,1.565531 -1.26911,2.834646 -2.83464,2.834646 -1.56554,0 -2.83465,-1.269115 -2.83465,-2.834646 0,-1.565532 1.26911,-2.834646 2.83465,-2.834646 1.56553,0 2.83464,1.269114 2.83464,2.834646 z" /></g></g></g></g></svg>