<svg id="i_cam_angle" xmlns="http://www.w3.org/2000/svg" width="24" height="24" viewBox="0 0 24 24">
  <rect id="Rechteck_1516" data-name="Rechteck 1516" width="24" height="24" transform="translate(0 0)" fill="none"/>
  <path id="Pfad_1877" data-name="Pfad 1877" d="M152,187h-2.051A10.015,10.015,0,0,1,141,195.949V198h-2v-2.051A10.015,10.015,0,0,1,130.051,187H128v-2h2.054a9.924,9.924,0,0,1,2.3-5.424l1.141,1.793A7.946,7.946,0,0,0,132.081,185H134v2h-1.931A8.008,8.008,0,0,0,139,193.931V192h2v1.931A8.008,8.008,0,0,0,147.931,187H146v-2h1.919a7.946,7.946,0,0,0-1.416-3.631l1.141-1.793a9.931,9.931,0,0,1,2.3,5.424H152Zm-4.156-11.463-1.688-1.074L140,184.137l-6.156-9.674-1.688,1.074L140,187.863Z" transform="translate(-128 -174.463)" fill="#0b7285"/>
</svg>
