<svg id="i_coordinates" xmlns="http://www.w3.org/2000/svg" width="24" height="24" viewBox="0 0 24 24">
  <rect id="Rechteck_1516" data-name="Rechteck 1516" width="24" height="24" fill="none"/>
  <path id="Pfad_1879" data-name="Pfad 1879" d="M239,257.423l9.892,5.711-1,1.732L238,259.155l-9.892,5.711-1-1.732L237,257.423V246h2Zm-2,6.443h2v-2h-2Zm0,3h2v-2h-2Zm0,3h2v-2h-2Zm6.7-14.134-1-1.732-1.732,1,1,1.732Zm2.6-1.5-1-1.732-1.732,1,1,1.732Zm2.6-1.5-1-1.732-1.732,1,1,1.732Zm-14.856,4,1-1.732-1.732-1-1,1.732Zm-2.6-1.5,1-1.732-1.732-1-1,1.732ZM229.84,252l-1.732-1-1,1.732,1.732,1Z" transform="translate(-226.108 -246)" fill="#0b7285"/>
</svg>
