<svg id="i_download_kml" xmlns="http://www.w3.org/2000/svg" width="24" height="24" viewBox="0 0 24 24">
  <path id="icon_kml_download" d="M398.6,166.321a2,2,0,0,0-2,2v16a2,2,0,0,0,2,2h8.123l-.586-.586-1.414-1.414H398.6v-16h7v5h5v5h2v-6l-6-6Zm9.244,8.293-3.293,3.293-2-2-2.707,2.707,1.414,1.414,1.293-1.293,2,2,4.707-4.707Zm2.707,5.707v4h-3l4,4,4-4h-3v-4Z" transform="translate(-393.598 -165.321)" fill="#0b7285"/>
  <rect id="Rechteck_1972" data-name="Rechteck 1972" width="24" height="24" fill="none"/>
</svg>
