<svg id="i_heranzoomen" xmlns="http://www.w3.org/2000/svg" width="24" height="24" viewBox="0 0 24 24">
  <rect id="Rechteck_1499" data-name="Rechteck 1499" width="24" height="24" fill="none"/>
  <rect id="Rechteck_1500" data-name="Rechteck 1500" width="24" height="24" fill="none"/>
  <path id="icons8-zoom_in" d="M9,2a7,7,0,1,0,4.574,12.281l.426.426V16l6,6,2-2-6-6H14.707l-.426-.426A6.985,6.985,0,0,0,9,2ZM9,4A5,5,0,1,1,4,9,4.985,4.985,0,0,1,9,4ZM8,6V8H6v2H8v2h2V10h2V8H10V6Z" fill="#0b7285"/>
</svg>
