<svg id="i_invisible" xmlns="http://www.w3.org/2000/svg" width="24" height="24" viewBox="0 0 24 24">
  <rect id="Rechteck_1516" data-name="Rechteck 1516" width="24" height="24" fill="none"/>
  <path id="icons8-invisible" d="M674.331,374.389l-1.414,1.414,2.775,2.775a13.668,13.668,0,0,0-1.449,1.377,14.656,14.656,0,0,0-2.619,4.141s3,8,11,8a10.817,10.817,0,0,0,3.27-.49,9.859,9.859,0,0,0,1.979-.848l3.045,3.045,1.414-1.414Zm8.293,1.707a10.765,10.765,0,0,0-3.27.49l1.66,1.66a8.212,8.212,0,0,1,1.61-.15c5.28,0,7.941,4.27,8.811,6a12.836,12.836,0,0,1-1.85,2.721l1.42,1.42a14.664,14.664,0,0,0,2.619-4.141S690.624,376.1,682.624,376.1Zm-5.512,3.9,2.07,2.07a3.912,3.912,0,0,0-.558,2.03,2.324,2.324,0,0,0,.01.25,3.992,3.992,0,0,0,3.74,3.74,2.329,2.329,0,0,0,.25.01,3.931,3.931,0,0,0,2.027-.559l1.73,1.73a8.1,8.1,0,0,1-2.148.678,8.353,8.353,0,0,1-1.609.151c-5.28,0-7.941-4.27-8.811-6a12.47,12.47,0,0,1,1.85-2.721A11.306,11.306,0,0,1,677.112,380Zm5.762.107,3.74,3.74a3.989,3.989,0,0,0-3.74-3.737Z" transform="translate(-670.624 -371.389)" fill="#0b7285"/>
</svg>
