<svg id="i_polygon_zeichnen" xmlns="http://www.w3.org/2000/svg" width="24" height="24" viewBox="0 0 24 24">
  <path id="icon_polygon_zeichnen" d="M15,2a2,2,0,0,0-1.971,1.668L8.584,4.779a2,2,0,1,0-3.041,2.59L3.986,11A2,2,0,1,0,5.7,14.051l3.373.482A2,2,0,0,0,11,16l.1,0,1.361,2.723a2,2,0,1,0,3.455.723l3.186-2.654a2,2,0,1,0,1.7-3.619V9.83a2,2,0,1,0-1.73-3.6L16.93,4.518A1.993,1.993,0,0,0,15,2ZM13.418,5.221a1.994,1.994,0,0,0,2.512.549L18.07,7.482A1.989,1.989,0,0,0,19.2,9.832V13.17a1.995,1.995,0,0,0-1.119,2.389l-3.186,2.654A2,2,0,0,0,14,18l-.1,0-1.361-2.723A2,2,0,1,0,9.3,12.949l-3.373-.482a2,2,0,0,0-.473-.836L7.012,8A2,2,0,0,0,8.971,6.332Z" fill="#0b7285"/>
  <rect id="Rechteck_1969" data-name="Rechteck 1969" width="24" height="24" fill="none"/>
</svg>
