<svg id="i_linie_auswahl_links" xmlns="http://www.w3.org/2000/svg" width="24" height="24" viewBox="0 0 24 24">
  <rect id="Rechteck_2746" data-name="Rechteck 2746" width="24" height="24" fill="none"/>
  <path id="Rechteck_2745" data-name="Rechteck 2745" d="M674.5,381.25h0a3,3,0,0,1,3,3h0a3,3,0,0,1-3,3h0a3,3,0,0,1-3-3h0A3,3,0,0,1,674.5,381.25Z" transform="translate(-670.5 -372.25)" fill="#66d9e8"  opacity="0.3"/>
  <path id="Pfad_7630" data-name="Pfad 7630" d="M694.5,383.25H678.358a4,4,0,1,0,0,2H694.5Zm-20,3a2,2,0,1,1,2-2A2,2,0,0,1,674.5,386.25Z" transform="translate(-670.5 -372.25)" fill="#0b7285"/>
</svg>
