<svg id="i_vector" xmlns="http://www.w3.org/2000/svg" width="24" height="24" viewBox="0 0 24 24">
  <path id="icons8-vector" d="M9,6V8.25H4.359A2.258,2.258,0,0,0,2.25,6.75a2.25,2.25,0,0,0,0,4.5,2.258,2.258,0,0,0,2.109-1.5H6.094a6.432,6.432,0,0,0-.82.961A8.67,8.67,0,0,0,3.773,15H1.5v6h6V15H5.3a7.252,7.252,0,0,1,1.2-3.422A4.037,4.037,0,0,1,9,9.82V12h6V9.82a4.037,4.037,0,0,1,2.508,1.758A7.252,7.252,0,0,1,18.7,15H16.5v6h6V15H20.227a8.67,8.67,0,0,0-1.5-4.289,6.432,6.432,0,0,0-.82-.961h1.734a2.25,2.25,0,1,0,0-1.5H15V6Zm1.5,1.5h3v3h-3Zm-8.25.75A.75.75,0,1,1,1.5,9,.74.74,0,0,1,2.25,8.25Zm19.5,0A.75.75,0,1,1,21,9,.74.74,0,0,1,21.75,8.25ZM3,16.5H6v3H3Zm15,0h3v3H18Z" transform="translate(0 -1)" fill="#0b7285"/>
  <rect id="Rechteck_1910" data-name="Rechteck 1910" width="24" height="24" fill="none"/>
</svg>
